<mxfile host="Electron" agent="Mozilla/5.0 (Macintosh; Intel Mac OS X 10_15_7) AppleWebKit/537.36 (KHTML, like Gecko) draw.io/24.7.17 Chrome/128.0.6613.36 Electron/32.0.1 Safari/537.36" version="24.7.17">
  <diagram name="페이지-1" id="GXypZR3SfNcApARTkOnI">
    <mxGraphModel dx="937" dy="684" grid="1" gridSize="10" guides="1" tooltips="1" connect="1" arrows="1" fold="1" page="1" pageScale="1" pageWidth="827" pageHeight="1169" math="0" shadow="0">
      <root>
        <mxCell id="0" />
        <mxCell id="1" parent="0" />
        <mxCell id="Bjk0NDpPCzMtRzC9P0vz-9" value="" style="shape=image;verticalLabelPosition=bottom;labelBackgroundColor=default;verticalAlign=top;aspect=fixed;imageAspect=0;image=https://files.oaiusercontent.com/file-YjLOv4Prwv7G037FLLO4IxtW?se=2024-11-16T18%3A53%3A07Z&amp;sp=r&amp;sv=2024-08-04&amp;sr=b&amp;rscc=max-age%3D299%2C%20immutable%2C%20private&amp;rscd=attachment%3B%20filename%3De6d14c9f-6d85-4044-9d9d-0500be7d6f90&amp;sig=qJrAExpCEf0MxUIyAKDAkbDn9DprlPfvAHeS77/I2XM%3D;" vertex="1" parent="1">
          <mxGeometry x="580" y="200" width="560" height="301" as="geometry" />
        </mxCell>
        <mxCell id="Bjk0NDpPCzMtRzC9P0vz-8" value="" style="shape=image;verticalLabelPosition=bottom;labelBackgroundColor=default;verticalAlign=top;aspect=fixed;imageAspect=0;image=https://files.oaiusercontent.com/file-0FdCREgOZlt8HHmp14MDMv5R?se=2024-11-16T18%3A48%3A52Z&amp;sp=r&amp;sv=2024-08-04&amp;sr=b&amp;rscc=max-age%3D299%2C%20immutable%2C%20private&amp;rscd=attachment%3B%20filename%3D4674a02b-6bed-4b4a-a7cd-0c5b0f3d78e5&amp;sig=jkC7IVTgmTVqd06XXcoRezYI7LaBOM9STIBZBACIeBU%3D;" vertex="1" parent="1">
          <mxGeometry y="200" width="560" height="301" as="geometry" />
        </mxCell>
        <mxCell id="Bjk0NDpPCzMtRzC9P0vz-2" value="" style="endArrow=none;dashed=1;html=1;rounded=0;fillColor=#d5e8d4;strokeColor=#4D9900;strokeWidth=2;" edge="1" parent="1">
          <mxGeometry width="50" height="50" relative="1" as="geometry">
            <mxPoint x="345" y="470" as="sourcePoint" />
            <mxPoint x="345" y="220" as="targetPoint" />
          </mxGeometry>
        </mxCell>
        <mxCell id="Bjk0NDpPCzMtRzC9P0vz-3" style="edgeStyle=orthogonalEdgeStyle;rounded=0;orthogonalLoop=1;jettySize=auto;html=1;curved=1;fillColor=#d5e8d4;strokeColor=#82b366;dashed=1;dashPattern=8 8;exitX=0.5;exitY=1;exitDx=0;exitDy=0;" edge="1" parent="1" source="Bjk0NDpPCzMtRzC9P0vz-4">
          <mxGeometry relative="1" as="geometry">
            <mxPoint x="350" y="340" as="targetPoint" />
            <Array as="points">
              <mxPoint x="455" y="340" />
            </Array>
          </mxGeometry>
        </mxCell>
        <mxCell id="Bjk0NDpPCzMtRzC9P0vz-4" value="&lt;font style=&quot;font-size: 13px;&quot;&gt;결정경계 P(x | M) = P(x | F)&lt;/font&gt;" style="text;strokeColor=none;align=center;fillColor=none;html=1;verticalAlign=middle;whiteSpace=wrap;rounded=0;" vertex="1" parent="1">
          <mxGeometry x="370" y="283" width="170" height="30" as="geometry" />
        </mxCell>
        <mxCell id="Bjk0NDpPCzMtRzC9P0vz-15" value="" style="endArrow=none;dashed=1;html=1;rounded=0;fillColor=#f8cecc;strokeColor=#b85450;strokeWidth=2;" edge="1" parent="1">
          <mxGeometry width="50" height="50" relative="1" as="geometry">
            <mxPoint x="315" y="470" as="sourcePoint" />
            <mxPoint x="315" y="220" as="targetPoint" />
          </mxGeometry>
        </mxCell>
        <mxCell id="Bjk0NDpPCzMtRzC9P0vz-5" value="" style="ellipse;whiteSpace=wrap;html=1;aspect=fixed;fillColor=#d80073;strokeColor=#A50040;fontColor=#ffffff;" vertex="1" parent="1">
          <mxGeometry x="309" y="467" width="10" height="10" as="geometry" />
        </mxCell>
        <mxCell id="Bjk0NDpPCzMtRzC9P0vz-6" value="&lt;font color=&quot;#ff0080&quot; style=&quot;font-size: 15px;&quot;&gt;데이터 X&lt;/font&gt;" style="text;strokeColor=none;align=center;fillColor=none;html=1;verticalAlign=middle;whiteSpace=wrap;rounded=0;" vertex="1" parent="1">
          <mxGeometry x="249" y="447" width="70" height="30" as="geometry" />
        </mxCell>
        <mxCell id="Bjk0NDpPCzMtRzC9P0vz-10" value="" style="endArrow=none;dashed=1;html=1;rounded=0;fillColor=#d5e8d4;strokeColor=#4D9900;strokeWidth=2;" edge="1" parent="1">
          <mxGeometry width="50" height="50" relative="1" as="geometry">
            <mxPoint x="851" y="470" as="sourcePoint" />
            <mxPoint x="851" y="220" as="targetPoint" />
          </mxGeometry>
        </mxCell>
        <mxCell id="Bjk0NDpPCzMtRzC9P0vz-13" value="" style="ellipse;whiteSpace=wrap;html=1;aspect=fixed;fillColor=#d80073;strokeColor=#A50040;fontColor=#ffffff;" vertex="1" parent="1">
          <mxGeometry x="890" y="467" width="10" height="10" as="geometry" />
        </mxCell>
        <mxCell id="Bjk0NDpPCzMtRzC9P0vz-14" value="&lt;font color=&quot;#ff0080&quot; style=&quot;font-size: 15px;&quot;&gt;데이터 X&lt;/font&gt;" style="text;strokeColor=none;align=center;fillColor=none;html=1;verticalAlign=middle;whiteSpace=wrap;rounded=0;" vertex="1" parent="1">
          <mxGeometry x="900" y="437" width="70" height="30" as="geometry" />
        </mxCell>
        <mxCell id="Bjk0NDpPCzMtRzC9P0vz-17" value="&lt;font style=&quot;font-size: 13px;&quot;&gt;결정경계 P(x | M) = P(x | F)&lt;/font&gt;" style="text;strokeColor=none;align=center;fillColor=none;html=1;verticalAlign=middle;whiteSpace=wrap;rounded=0;" vertex="1" parent="1">
          <mxGeometry x="650" y="240" width="170" height="30" as="geometry" />
        </mxCell>
        <mxCell id="Bjk0NDpPCzMtRzC9P0vz-18" style="edgeStyle=orthogonalEdgeStyle;rounded=0;orthogonalLoop=1;jettySize=auto;html=1;curved=1;fillColor=#d5e8d4;strokeColor=#82b366;dashed=1;dashPattern=8 8;exitX=0.5;exitY=1;exitDx=0;exitDy=0;" edge="1" parent="1" source="Bjk0NDpPCzMtRzC9P0vz-17">
          <mxGeometry relative="1" as="geometry">
            <mxPoint x="850" y="297" as="targetPoint" />
            <Array as="points">
              <mxPoint x="735" y="297" />
            </Array>
            <mxPoint x="745" y="270" as="sourcePoint" />
          </mxGeometry>
        </mxCell>
        <mxCell id="Bjk0NDpPCzMtRzC9P0vz-19" value="" style="endArrow=none;dashed=1;html=1;rounded=0;fillColor=#f8cecc;strokeColor=#b85450;strokeWidth=2;" edge="1" parent="1">
          <mxGeometry width="50" height="50" relative="1" as="geometry">
            <mxPoint x="895.52" y="467" as="sourcePoint" />
            <mxPoint x="895.52" y="217" as="targetPoint" />
          </mxGeometry>
        </mxCell>
      </root>
    </mxGraphModel>
  </diagram>
</mxfile>
